<mxfile host="app.diagrams.net" modified="2023-09-20T02:16:47.802Z" agent="Mozilla/5.0 (X11; Linux x86_64; rv:109.0) Gecko/20100101 Firefox/117.0" etag="S7xPGgFiVtMDxbMtdqG7" version="21.7.5" type="github">
  <diagram name="Page-1" id="i9kUg0sXFJhj6cccn-YR">
    <mxGraphModel dx="1050" dy="677" grid="1" gridSize="10" guides="1" tooltips="1" connect="1" arrows="1" fold="1" page="1" pageScale="1" pageWidth="827" pageHeight="1169" math="0" shadow="0">
      <root>
        <mxCell id="0" />
        <mxCell id="1" parent="0" />
        <mxCell id="tY3E_lzMiKL4bfyCI7sq-5" style="edgeStyle=orthogonalEdgeStyle;rounded=0;orthogonalLoop=1;jettySize=auto;html=1;entryX=0.5;entryY=0;entryDx=0;entryDy=0;" edge="1" parent="1" source="tY3E_lzMiKL4bfyCI7sq-1" target="tY3E_lzMiKL4bfyCI7sq-4">
          <mxGeometry relative="1" as="geometry" />
        </mxCell>
        <mxCell id="tY3E_lzMiKL4bfyCI7sq-1" value="Start" style="strokeWidth=2;html=1;shape=mxgraph.flowchart.terminator;whiteSpace=wrap;" vertex="1" parent="1">
          <mxGeometry x="350" y="110" width="100" height="60" as="geometry" />
        </mxCell>
        <mxCell id="tY3E_lzMiKL4bfyCI7sq-8" style="edgeStyle=orthogonalEdgeStyle;rounded=0;orthogonalLoop=1;jettySize=auto;html=1;entryX=0.5;entryY=0;entryDx=0;entryDy=0;entryPerimeter=0;" edge="1" parent="1" source="tY3E_lzMiKL4bfyCI7sq-4" target="tY3E_lzMiKL4bfyCI7sq-7">
          <mxGeometry relative="1" as="geometry" />
        </mxCell>
        <mxCell id="tY3E_lzMiKL4bfyCI7sq-4" value="&lt;div&gt;jumlah_baris = 5&lt;br&gt;&lt;/div&gt;&lt;div&gt;i = 1&lt;br&gt;&lt;/div&gt;&lt;div&gt;j = 1&lt;br&gt;&lt;/div&gt;" style="shape=hexagon;perimeter=hexagonPerimeter2;whiteSpace=wrap;html=1;fixedSize=1;" vertex="1" parent="1">
          <mxGeometry x="340" y="200" width="120" height="80" as="geometry" />
        </mxCell>
        <mxCell id="tY3E_lzMiKL4bfyCI7sq-17" style="edgeStyle=orthogonalEdgeStyle;rounded=0;orthogonalLoop=1;jettySize=auto;html=1;entryX=0.5;entryY=0;entryDx=0;entryDy=0;" edge="1" parent="1" source="tY3E_lzMiKL4bfyCI7sq-7" target="tY3E_lzMiKL4bfyCI7sq-16">
          <mxGeometry relative="1" as="geometry" />
        </mxCell>
        <mxCell id="tY3E_lzMiKL4bfyCI7sq-33" value="Yes" style="edgeLabel;html=1;align=center;verticalAlign=middle;resizable=0;points=[];" vertex="1" connectable="0" parent="tY3E_lzMiKL4bfyCI7sq-17">
          <mxGeometry x="0.1" y="-4" relative="1" as="geometry">
            <mxPoint as="offset" />
          </mxGeometry>
        </mxCell>
        <mxCell id="tY3E_lzMiKL4bfyCI7sq-25" style="edgeStyle=orthogonalEdgeStyle;rounded=0;orthogonalLoop=1;jettySize=auto;html=1;entryX=0;entryY=0.5;entryDx=0;entryDy=0;entryPerimeter=0;" edge="1" parent="1" source="tY3E_lzMiKL4bfyCI7sq-7" target="tY3E_lzMiKL4bfyCI7sq-27">
          <mxGeometry relative="1" as="geometry">
            <mxPoint x="580" y="370" as="targetPoint" />
            <Array as="points">
              <mxPoint x="540" y="370" />
              <mxPoint x="540" y="370" />
            </Array>
          </mxGeometry>
        </mxCell>
        <mxCell id="tY3E_lzMiKL4bfyCI7sq-32" value="No" style="edgeLabel;html=1;align=center;verticalAlign=middle;resizable=0;points=[];" vertex="1" connectable="0" parent="tY3E_lzMiKL4bfyCI7sq-25">
          <mxGeometry x="0.2" y="-2" relative="1" as="geometry">
            <mxPoint as="offset" />
          </mxGeometry>
        </mxCell>
        <mxCell id="tY3E_lzMiKL4bfyCI7sq-7" value="i &amp;lt;= jumlah_baris" style="strokeWidth=2;html=1;shape=mxgraph.flowchart.decision;whiteSpace=wrap;" vertex="1" parent="1">
          <mxGeometry x="320" y="320" width="160" height="100" as="geometry" />
        </mxCell>
        <mxCell id="tY3E_lzMiKL4bfyCI7sq-20" style="edgeStyle=orthogonalEdgeStyle;rounded=0;orthogonalLoop=1;jettySize=auto;html=1;entryX=0.5;entryY=1;entryDx=0;entryDy=0;exitX=1;exitY=0.5;exitDx=0;exitDy=0;" edge="1" parent="1" target="tY3E_lzMiKL4bfyCI7sq-34">
          <mxGeometry relative="1" as="geometry">
            <mxPoint x="470" y="500" as="targetPoint" />
            <mxPoint x="460" y="680" as="sourcePoint" />
            <Array as="points">
              <mxPoint x="570" y="680" />
            </Array>
          </mxGeometry>
        </mxCell>
        <mxCell id="tY3E_lzMiKL4bfyCI7sq-18" style="edgeStyle=orthogonalEdgeStyle;rounded=0;orthogonalLoop=1;jettySize=auto;html=1;entryX=0.5;entryY=0;entryDx=0;entryDy=0;" edge="1" parent="1" source="tY3E_lzMiKL4bfyCI7sq-16">
          <mxGeometry relative="1" as="geometry">
            <mxPoint x="400" y="650" as="targetPoint" />
          </mxGeometry>
        </mxCell>
        <mxCell id="tY3E_lzMiKL4bfyCI7sq-21" value="y" style="edgeLabel;html=1;align=center;verticalAlign=middle;resizable=0;points=[];" vertex="1" connectable="0" parent="tY3E_lzMiKL4bfyCI7sq-18">
          <mxGeometry x="0.2571" y="1" relative="1" as="geometry">
            <mxPoint as="offset" />
          </mxGeometry>
        </mxCell>
        <mxCell id="tY3E_lzMiKL4bfyCI7sq-30" value="&lt;div&gt;YES&lt;/div&gt;" style="edgeLabel;html=1;align=center;verticalAlign=middle;resizable=0;points=[];" vertex="1" connectable="0" parent="tY3E_lzMiKL4bfyCI7sq-18">
          <mxGeometry x="0.3273" y="-2" relative="1" as="geometry">
            <mxPoint as="offset" />
          </mxGeometry>
        </mxCell>
        <mxCell id="tY3E_lzMiKL4bfyCI7sq-23" style="edgeStyle=orthogonalEdgeStyle;rounded=0;orthogonalLoop=1;jettySize=auto;html=1;entryX=1;entryY=0.5;entryDx=0;entryDy=0;" edge="1" parent="1" source="tY3E_lzMiKL4bfyCI7sq-16" target="tY3E_lzMiKL4bfyCI7sq-39">
          <mxGeometry relative="1" as="geometry">
            <mxPoint x="280" y="500" as="targetPoint" />
          </mxGeometry>
        </mxCell>
        <mxCell id="tY3E_lzMiKL4bfyCI7sq-29" value="N" style="edgeLabel;html=1;align=center;verticalAlign=middle;resizable=0;points=[];" vertex="1" connectable="0" parent="tY3E_lzMiKL4bfyCI7sq-23">
          <mxGeometry x="-0.2" y="-2" relative="1" as="geometry">
            <mxPoint as="offset" />
          </mxGeometry>
        </mxCell>
        <mxCell id="tY3E_lzMiKL4bfyCI7sq-16" value="j &amp;lt;= i" style="rhombus;whiteSpace=wrap;html=1;" vertex="1" parent="1">
          <mxGeometry x="360" y="460" width="80" height="80" as="geometry" />
        </mxCell>
        <mxCell id="tY3E_lzMiKL4bfyCI7sq-31" style="edgeStyle=orthogonalEdgeStyle;rounded=0;orthogonalLoop=1;jettySize=auto;html=1;entryX=0;entryY=0.5;entryDx=0;entryDy=0;entryPerimeter=0;exitX=0.5;exitY=0;exitDx=0;exitDy=0;" edge="1" parent="1" source="tY3E_lzMiKL4bfyCI7sq-24" target="tY3E_lzMiKL4bfyCI7sq-7">
          <mxGeometry relative="1" as="geometry" />
        </mxCell>
        <mxCell id="tY3E_lzMiKL4bfyCI7sq-24" value="&lt;div&gt;i = i + 1&lt;br&gt;&lt;/div&gt;&lt;div&gt;j = 1&lt;br&gt;&lt;/div&gt;" style="rounded=0;whiteSpace=wrap;html=1;" vertex="1" parent="1">
          <mxGeometry x="10" y="470" width="120" height="60" as="geometry" />
        </mxCell>
        <mxCell id="tY3E_lzMiKL4bfyCI7sq-27" value="End" style="strokeWidth=2;html=1;shape=mxgraph.flowchart.terminator;whiteSpace=wrap;" vertex="1" parent="1">
          <mxGeometry x="550" y="340" width="100" height="60" as="geometry" />
        </mxCell>
        <mxCell id="tY3E_lzMiKL4bfyCI7sq-36" style="edgeStyle=orthogonalEdgeStyle;rounded=0;orthogonalLoop=1;jettySize=auto;html=1;entryX=1;entryY=0.5;entryDx=0;entryDy=0;exitX=0.5;exitY=0;exitDx=0;exitDy=0;" edge="1" parent="1" source="tY3E_lzMiKL4bfyCI7sq-34" target="tY3E_lzMiKL4bfyCI7sq-16">
          <mxGeometry relative="1" as="geometry" />
        </mxCell>
        <mxCell id="tY3E_lzMiKL4bfyCI7sq-34" value="j = j + 1" style="rounded=0;whiteSpace=wrap;html=1;" vertex="1" parent="1">
          <mxGeometry x="510" y="555" width="120" height="60" as="geometry" />
        </mxCell>
        <mxCell id="tY3E_lzMiKL4bfyCI7sq-38" value="cetak i" style="shape=parallelogram;perimeter=parallelogramPerimeter;whiteSpace=wrap;html=1;fixedSize=1;" vertex="1" parent="1">
          <mxGeometry x="354" y="650" width="120" height="60" as="geometry" />
        </mxCell>
        <mxCell id="tY3E_lzMiKL4bfyCI7sq-40" style="edgeStyle=orthogonalEdgeStyle;rounded=0;orthogonalLoop=1;jettySize=auto;html=1;entryX=1;entryY=0.5;entryDx=0;entryDy=0;" edge="1" parent="1" source="tY3E_lzMiKL4bfyCI7sq-39" target="tY3E_lzMiKL4bfyCI7sq-24">
          <mxGeometry relative="1" as="geometry" />
        </mxCell>
        <mxCell id="tY3E_lzMiKL4bfyCI7sq-39" value="cetak pindah baris" style="shape=parallelogram;perimeter=parallelogramPerimeter;whiteSpace=wrap;html=1;fixedSize=1;" vertex="1" parent="1">
          <mxGeometry x="190" y="470" width="120" height="60" as="geometry" />
        </mxCell>
      </root>
    </mxGraphModel>
  </diagram>
</mxfile>
